<?xml version="1.0" standalone="no"?>
<!DOCTYPE svg PUBLIC "-//W3C//DTD SVG 20010904//EN"
 "http://www.w3.org/TR/2001/REC-SVG-20010904/DTD/svg10.dtd">
<svg version="1.0" xmlns="http://www.w3.org/2000/svg"
 width="640.000000pt" height="640.000000pt" viewBox="0 0 640.000000 640.000000"
 preserveAspectRatio="xMidYMid meet">
<metadata>
Created by potrace 1.11, written by Peter Selinger 2001-2013
</metadata>
<g transform="translate(0.000000,640.000000) scale(0.100000,-0.100000)"
fill="#000000" stroke="none">
<path d="M3176 5579 c-19 -59 -98 -297 -103 -309 -3 -8 -7 -19 -8 -25 -2 -5
-33 -98 -69 -205 -37 -107 -69 -202 -71 -210 -3 -12 -122 -373 -142 -430 -26
-73 -565 -1679 -568 -1690 -2 -8 -43 -130 -90 -270 -48 -140 -89 -262 -91
-270 -2 -8 -29 -87 -59 -175 -31 -88 -58 -164 -59 -170 -6 -22 -51 -158 -190
-574 -80 -238 -146 -437 -146 -442 0 -8 85 -12 165 -8 17 0 37 1 45 0 11 0
206 0 275 0 6 0 67 0 137 -1 110 -1 167 6 157 21 -2 2 4 27 13 54 23 73 201
643 219 702 6 17 15 33 22 35 7 2 275 3 596 3 503 -1 585 -3 592 -15 7 -14 40
-121 45 -145 1 -5 9 -30 17 -55 8 -25 32 -99 52 -165 20 -66 39 -129 43 -140
3 -11 6 -22 7 -25 0 -3 3 -9 6 -15 5 -8 14 -36 25 -80 1 -5 14 -47 28 -92 l27
-83 42 -1 c23 0 72 -1 109 -2 38 -1 68 0 68 3 0 3 30 4 67 2 57 -2 141 -3 162
0 3 0 11 0 16 -1 6 -1 57 -2 115 -1 58 0 124 0 148 0 23 0 42 3 42 7 0 5 -30
94 -66 198 -36 105 -67 197 -69 205 -2 8 -29 87 -60 175 -31 88 -57 165 -59
170 -1 6 -13 42 -26 80 -13 39 -25 72 -25 75 -1 3 -4 12 -7 20 -3 8 -13 38
-23 65 -9 28 -20 59 -25 70 -5 11 -11 29 -13 40 -3 11 -44 133 -92 270 -47
138 -88 257 -90 265 -2 8 -34 101 -70 205 -37 105 -68 195 -69 200 -1 6 -4 15
-8 20 -3 6 -12 30 -19 55 -16 57 -14 51 -26 80 -5 14 -31 90 -58 170 -26 80
-51 154 -56 165 -10 23 -78 221 -85 250 -3 11 -10 29 -14 40 -12 27 -141 405
-147 430 -2 11 -8 29 -13 40 -5 11 -18 49 -30 85 -12 36 -24 72 -27 80 -3 8
-7 20 -9 25 -3 10 -146 424 -157 455 -3 8 -28 83 -56 165 -101 301 -231 679
-236 683 -2 3 -7 -1 -9 -9z m59 -2179 c2 -8 10 -35 18 -60 8 -25 32 -99 52
-165 20 -66 45 -145 55 -175 23 -70 93 -292 96 -305 1 -5 16 -53 32 -105 105
-333 122 -386 122 -397 0 -10 -94 -12 -415 -12 -319 0 -413 3 -410 12 2 7 11
37 20 67 9 30 19 62 22 70 4 8 7 18 8 23 2 4 4 9 5 12 1 3 3 8 4 13 1 4 10 34
21 67 10 33 19 62 20 65 0 3 15 50 33 105 17 55 31 102 31 105 -1 3 6 22 14
43 9 20 13 37 10 37 -3 0 -1 6 4 13 5 6 15 32 22 57 8 25 20 63 27 85 14 42
128 405 146 465 6 19 15 44 21 55 9 18 12 16 24 -20 8 -22 16 -47 18 -55z"/>
<path d="M1708 2175 c-2 -2 -41 -6 -88 -10 -47 -4 -98 -9 -115 -11 -16 -1 -65
-5 -107 -9 -42 -3 -86 -8 -97 -10 -11 -2 -60 -6 -108 -10 -49 -3 -99 -8 -113
-10 -14 -2 -54 -6 -90 -9 -36 -4 -94 -9 -130 -12 -36 -4 -82 -7 -102 -8 -21 0
-38 -3 -38 -6 0 -3 -19 -5 -43 -6 -38 0 -126 -8 -240 -19 -87 -9 -240 -23
-307 -28 -22 -2 -31 -10 -41 -42 -1 -5 -22 -68 -46 -139 -23 -71 -41 -131 -39
-134 3 -2 38 -6 78 -8 122 -6 249 -13 333 -19 109 -7 254 -15 345 -20 41 -2
111 -7 155 -10 44 -3 123 -8 175 -11 180 -9 235 -12 335 -19 177 -12 156 -19
184 60 13 39 44 126 68 195 24 69 45 130 46 135 2 6 13 39 25 75 12 36 22 69
22 75 0 8 -54 17 -62 10z"/>
<path d="M4637 2133 c9 -26 20 -57 24 -68 4 -11 31 -87 58 -170 96 -286 98
-290 131 -280 13 4 112 10 300 20 25 1 95 5 155 9 61 4 148 9 195 11 47 2 85
5 85 5 0 2 67 6 225 15 113 6 138 8 335 19 204 12 248 16 252 20 2 2 -1 14 -6
27 -6 13 -27 78 -47 144 -20 66 -42 125 -48 131 -6 7 -49 15 -96 18 -47 4 -99
8 -116 11 -16 2 -66 6 -110 10 -43 3 -97 8 -119 10 -22 3 -65 7 -95 10 -109 9
-176 15 -215 20 -22 2 -74 7 -115 10 -41 4 -88 8 -105 10 -16 1 -64 6 -105 9
-41 4 -96 9 -122 11 -25 3 -71 8 -102 10 -31 3 -82 8 -113 11 -32 3 -76 7 -98
9 -22 2 -68 6 -102 10 l-62 6 16 -48z"/>
</g>
</svg>
